# xmcd
#
# Track frame offsets: 
#        150
#        17906
#        32412
#        56137
#        86224
#        98071
#        113729
#        126387
#        143750
#        160655
#        180048
#        192566
#        203066
#        234010
#        245732
#        276992
#        292474
#        316224
#
# Disc length: 4669 seconds
#
# Revision: 0
# Processed by: cddbd v1.5.2PL0 Copyright (c) Steve Scherf et al.
# Submitted via: ExactAudioCopyFreeDBPlugin 1.0
#
DISCID=02123b12
DTITLE=Ray Charles - Live In Paris - CD1
DYEAR=1961
DGENRE=Soul
TTITLE0=I Wonder
TTITLE1=Sticks And Stones
TTITLE2=My Baby
TTITLE3=Just For A Thrill
TTITLE4=Margie
TTITLE5=Moanin'
TTITLE6=Alexander's Ragtime Band
TTITLE7=I Believe To My Soul
TTITLE8=My Bonnie
TTITLE9=I've Got News For You
TTITLE10=Yes Indeed
TTITLE11=Hit The Road Jack
TTITLE12=What'd I Say
TTITLE13=Let The Good Times Roll
TTITLE14=Come Rain Or Come Shine
TTITLE15=Hallelujah, I Love Her So
TTITLE16=I'm Gonna Move To The Outskirts Of Town
TTITLE17=Georgia On My Mind
EXTD=
EXTT0=
EXTT1=
EXTT2=
EXTT3=
EXTT4=
EXTT5=
EXTT6=
EXTT7=
EXTT8=
EXTT9=
EXTT10=
EXTT11=
EXTT12=
EXTT13=
EXTT14=
EXTT15=
EXTT16=
EXTT17=
PLAYORDER=
